<mxfile host="Electron" agent="Mozilla/5.0 (Windows NT 10.0; Win64; x64) AppleWebKit/537.36 (KHTML, like Gecko) draw.io/24.7.8 Chrome/128.0.6613.36 Electron/32.0.1 Safari/537.36" version="24.7.8">
  <diagram name="Page-1" id="6dY_J2Bg8tOIPsIp2blP">
    <mxGraphModel dx="1295" dy="758" grid="1" gridSize="10" guides="1" tooltips="1" connect="1" arrows="1" fold="1" page="1" pageScale="1" pageWidth="850" pageHeight="1100" math="0" shadow="0">
      <root>
        <mxCell id="0" />
        <mxCell id="1" parent="0" />
        <mxCell id="vZCmfVuF4s8x9epu84NM-3" value="" style="swimlane;startSize=0;" vertex="1" parent="1">
          <mxGeometry x="250" y="30" width="350" height="580" as="geometry" />
        </mxCell>
        <mxCell id="vZCmfVuF4s8x9epu84NM-4" value="Login" style="ellipse;whiteSpace=wrap;html=1;" vertex="1" parent="vZCmfVuF4s8x9epu84NM-3">
          <mxGeometry x="105" y="50" width="140" height="60" as="geometry" />
        </mxCell>
        <mxCell id="vZCmfVuF4s8x9epu84NM-5" style="edgeStyle=orthogonalEdgeStyle;rounded=0;orthogonalLoop=1;jettySize=auto;html=1;exitX=0.5;exitY=1;exitDx=0;exitDy=0;" edge="1" parent="vZCmfVuF4s8x9epu84NM-3" source="vZCmfVuF4s8x9epu84NM-4" target="vZCmfVuF4s8x9epu84NM-4">
          <mxGeometry relative="1" as="geometry" />
        </mxCell>
        <mxCell id="vZCmfVuF4s8x9epu84NM-11" value="Booking History" style="ellipse;whiteSpace=wrap;html=1;" vertex="1" parent="vZCmfVuF4s8x9epu84NM-3">
          <mxGeometry x="105" y="410" width="140" height="60" as="geometry" />
        </mxCell>
        <mxCell id="vZCmfVuF4s8x9epu84NM-10" value="Book Ride" style="ellipse;whiteSpace=wrap;html=1;" vertex="1" parent="vZCmfVuF4s8x9epu84NM-3">
          <mxGeometry x="105" y="320" width="140" height="60" as="geometry" />
        </mxCell>
        <mxCell id="vZCmfVuF4s8x9epu84NM-9" value="Publish Ride" style="ellipse;whiteSpace=wrap;html=1;" vertex="1" parent="vZCmfVuF4s8x9epu84NM-3">
          <mxGeometry x="105" y="230" width="140" height="60" as="geometry" />
        </mxCell>
        <mxCell id="vZCmfVuF4s8x9epu84NM-8" value="Registration" style="ellipse;whiteSpace=wrap;html=1;" vertex="1" parent="vZCmfVuF4s8x9epu84NM-3">
          <mxGeometry x="105" y="140" width="140" height="60" as="geometry" />
        </mxCell>
        <mxCell id="vZCmfVuF4s8x9epu84NM-6" value="Cancle Ride" style="ellipse;whiteSpace=wrap;html=1;" vertex="1" parent="vZCmfVuF4s8x9epu84NM-3">
          <mxGeometry x="105" y="490" width="140" height="60" as="geometry" />
        </mxCell>
        <mxCell id="vZCmfVuF4s8x9epu84NM-17" value="" style="endArrow=none;html=1;rounded=0;entryX=0;entryY=0.5;entryDx=0;entryDy=0;" edge="1" parent="vZCmfVuF4s8x9epu84NM-3" target="vZCmfVuF4s8x9epu84NM-11">
          <mxGeometry width="50" height="50" relative="1" as="geometry">
            <mxPoint x="-150" y="200" as="sourcePoint" />
            <mxPoint x="-50" y="280" as="targetPoint" />
          </mxGeometry>
        </mxCell>
        <mxCell id="vZCmfVuF4s8x9epu84NM-12" value="Customer" style="shape=umlActor;verticalLabelPosition=bottom;verticalAlign=top;html=1;outlineConnect=0;" vertex="1" parent="1">
          <mxGeometry x="70" y="210" width="30" height="60" as="geometry" />
        </mxCell>
        <mxCell id="vZCmfVuF4s8x9epu84NM-14" value="" style="endArrow=none;html=1;rounded=0;entryX=0;entryY=0.5;entryDx=0;entryDy=0;" edge="1" parent="1" target="vZCmfVuF4s8x9epu84NM-4">
          <mxGeometry width="50" height="50" relative="1" as="geometry">
            <mxPoint x="100" y="230" as="sourcePoint" />
            <mxPoint x="150" y="180" as="targetPoint" />
          </mxGeometry>
        </mxCell>
        <mxCell id="vZCmfVuF4s8x9epu84NM-15" value="" style="endArrow=none;html=1;rounded=0;entryX=0;entryY=0.5;entryDx=0;entryDy=0;" edge="1" parent="1" target="vZCmfVuF4s8x9epu84NM-8">
          <mxGeometry width="50" height="50" relative="1" as="geometry">
            <mxPoint x="100" y="230" as="sourcePoint" />
            <mxPoint x="365" y="120" as="targetPoint" />
          </mxGeometry>
        </mxCell>
        <mxCell id="vZCmfVuF4s8x9epu84NM-16" value="" style="endArrow=none;html=1;rounded=0;entryX=0;entryY=0.5;entryDx=0;entryDy=0;" edge="1" parent="1" target="vZCmfVuF4s8x9epu84NM-10">
          <mxGeometry width="50" height="50" relative="1" as="geometry">
            <mxPoint x="100" y="230" as="sourcePoint" />
            <mxPoint x="365" y="210" as="targetPoint" />
          </mxGeometry>
        </mxCell>
        <mxCell id="vZCmfVuF4s8x9epu84NM-18" value="" style="endArrow=none;html=1;rounded=0;entryX=0;entryY=0.5;entryDx=0;entryDy=0;" edge="1" parent="1" target="vZCmfVuF4s8x9epu84NM-6">
          <mxGeometry width="50" height="50" relative="1" as="geometry">
            <mxPoint x="100" y="230" as="sourcePoint" />
            <mxPoint x="220" y="450" as="targetPoint" />
          </mxGeometry>
        </mxCell>
        <mxCell id="vZCmfVuF4s8x9epu84NM-19" value="Ride Owner" style="shape=umlActor;verticalLabelPosition=bottom;verticalAlign=top;html=1;outlineConnect=0;" vertex="1" parent="1">
          <mxGeometry x="700" y="210" width="30" height="60" as="geometry" />
        </mxCell>
        <mxCell id="vZCmfVuF4s8x9epu84NM-20" value="" style="endArrow=none;html=1;rounded=0;entryX=0;entryY=0.3333333333333333;entryDx=0;entryDy=0;exitX=1;exitY=0.5;exitDx=0;exitDy=0;entryPerimeter=0;" edge="1" parent="1" source="vZCmfVuF4s8x9epu84NM-4" target="vZCmfVuF4s8x9epu84NM-19">
          <mxGeometry width="50" height="50" relative="1" as="geometry">
            <mxPoint x="550" y="220" as="sourcePoint" />
            <mxPoint x="805" y="100" as="targetPoint" />
          </mxGeometry>
        </mxCell>
        <mxCell id="vZCmfVuF4s8x9epu84NM-21" value="" style="endArrow=none;html=1;rounded=0;exitX=1;exitY=0.5;exitDx=0;exitDy=0;" edge="1" parent="1">
          <mxGeometry width="50" height="50" relative="1" as="geometry">
            <mxPoint x="495" y="290" as="sourcePoint" />
            <mxPoint x="700" y="230" as="targetPoint" />
          </mxGeometry>
        </mxCell>
        <mxCell id="vZCmfVuF4s8x9epu84NM-22" value="" style="endArrow=none;html=1;rounded=0;exitX=1;exitY=0.5;exitDx=0;exitDy=0;" edge="1" parent="1" source="vZCmfVuF4s8x9epu84NM-8">
          <mxGeometry width="50" height="50" relative="1" as="geometry">
            <mxPoint x="515" y="130" as="sourcePoint" />
            <mxPoint x="700" y="230" as="targetPoint" />
          </mxGeometry>
        </mxCell>
      </root>
    </mxGraphModel>
  </diagram>
</mxfile>
